<?xml version="1.0" standalone="no"?>
<svg
  width="600"
  height="600"
  viewBox="0 0 600 600"
  xmlns="http://www.w3.org/2000/svg"
>
  <g transform="translate(300,300)">
    <path d="M134.9,-208C177.5,-182.5,216.5,-149.6,239,-107.2C261.5,-64.7,267.3,-12.7,256.7,34.5C246.1,81.6,219,124,185.8,159.3C152.6,194.7,113.2,223,69,236.7C24.9,250.4,-24,249.5,-70,236.7C-115.9,224,-158.8,199.4,-192.4,164.6C-225.9,129.7,-250,84.6,-253.4,38.5C-256.8,-7.5,-239.4,-54.4,-219.5,-101.2C-199.7,-148.1,-177.4,-194.7,-140.4,-222.9C-103.4,-251,-51.7,-260.5,-2.8,-256.1C46.1,-251.8,92.3,-233.6,134.9,-208Z" fill="#fcb900" />
  </g>
</svg>
  