<?xml version="1.0" encoding="iso-8859-1"?>
<!-- Generator: Adobe Illustrator 24.0.3, SVG Export Plug-In . SVG Version: 6.00 Build 0)  -->
<svg version="1.1" id="Layer_1" xmlns="http://www.w3.org/2000/svg" xmlns:xlink="http://www.w3.org/1999/xlink" x="0px" y="0px"
	 viewBox="0 0 50 50" style="enable-background:new 0 0 50 50;" xml:space="preserve">
<path d="M44.5,11c-0.828,0-1.5,0.672-1.5,1.5s0.672,1.5,1.5,1.5s1.5-0.672,1.5-1.5S45.328,11,44.5,11z M37.5,11
	c-0.828,0-1.5,0.672-1.5,1.5s0.672,1.5,1.5,1.5s1.5-0.672,1.5-1.5S38.328,11,37.5,11z"/>
<path style="fill:none;stroke:#000000;stroke-width:2;stroke-linecap:round;stroke-linejoin:round;stroke-miterlimit:10;" d="
	M32.8,14.8C30.5,13.7,26.5,13,22,13c-5.7,0-12.2,4-14,4c-2.2,0-4-1.8-4-4s1.8-4,4-4c7.6,0,10.1-3.3,10.9-6.1c0.2-0.8-0.2-1.6-1-1.9
	c-0.8-0.2-1.6,0.2-1.9,1c-0.7,2.7-3.4,4-8,4c-3.9,0-7,3.1-7,7c0,7.8,8,8,8,8s0,24.9,0,25.5c0,1.4,1.1,2.5,2.5,2.5s2.5-1.1,2.5-2.5
	c0-0.6,0-15.5,0-15.5c0-1.7,4.9-4,9-4s9,2.3,9,4c0,0,0,14.9,0,15.5c0,1.4,1.1,2.5,2.5,2.5s2.5-1.1,2.5-2.5c0-0.6,0-14.5,0-14.5
	c0-1.1,0.9-2,2-2s2,0.9,2,2c0,0,0,13.9,0,14.5c0,1.4,1.1,2.5,2.5,2.5s2.5-1.1,2.5-2.5c0-0.6,0-26.5,0-26.5
	c1.851-1.276,3-4.255,3-6.5v-10l-4,4c-1.2-0.6-2.6-1-4-1s-2.9,0.4-4,1l-4-4v10c0,3.127,2.314,5.74,5.5,6.653"/>
</svg>
